<svg xmlns="http://www.w3.org/2000/svg" viewBox="0 0 100 100">
  <path d="M50,6 C62,18 74,30 76,48 C78,64 68,72 70,86 C71,93 64,97 55,97 C42,97 30,90 26,78 C22,66 26,54 32,50 C30,60 36,64 40,60 C34,50 34,38 42,26 C46,20 48,13 50,6 Z" fill="#2B7BA6"/>
  <g stroke="#8FDCF8" stroke-width="4.2" stroke-linecap="round" fill="none">
    <line x1="50" y1="76" x2="50" y2="61"/><line x1="47.3" y1="63.8" x2="50" y2="67"/><line x1="52.7" y1="63.8" x2="50" y2="67"/>
    <line x1="50" y1="76" x2="63" y2="68.5"/><line x1="59.2" y1="67.6" x2="57.8" y2="71.5"/><line x1="61.9" y1="72.2" x2="57.8" y2="71.5"/>
    <line x1="50" y1="76" x2="63" y2="83.5"/><line x1="61.9" y1="79.8" x2="57.8" y2="80.5"/><line x1="59.2" y1="84.4" x2="57.8" y2="80.5"/>
    <line x1="50" y1="76" x2="50" y2="91"/><line x1="52.7" y1="88.2" x2="50" y2="85"/><line x1="47.3" y1="88.2" x2="50" y2="85"/>
    <line x1="50" y1="76" x2="37" y2="83.5"/><line x1="40.8" y1="84.4" x2="42.2" y2="80.5"/><line x1="38.1" y1="79.8" x2="42.2" y2="80.5"/>
    <line x1="50" y1="76" x2="37" y2="68.5"/><line x1="38.1" y1="72.2" x2="42.2" y2="71.5"/><line x1="40.8" y1="67.6" x2="42.2" y2="71.5"/>
  </g>
</svg>
